<svg width="786" height="196" viewBox="0 0 786 196" fill="none" xmlns="http://www.w3.org/2000/svg">
<path fill-rule="evenodd" clip-rule="evenodd" d="M72.65 25.3513C32.5265 25.3513 0 57.8777 0 98.0012V169.21C0 170.005 0.644077 170.649 1.43859 170.649L19.8696 170.649V100.282C19.8696 71.3041 43.361 47.8127 72.3391 47.8127C101.317 47.8127 124.809 71.3041 124.809 100.282V170.649L143.861 170.649C144.656 170.649 145.3 170.005 145.3 169.21V98.0013C145.3 57.8778 112.773 25.3513 72.65 25.3513Z" fill="white"/>
<path d="M97.2623 92.6436C99.082 92.6436 100.275 90.7644 99.3127 89.2199C97.9902 87.0971 96.3943 85.122 94.5476 83.3466C88.6366 77.6639 80.6398 74.4917 72.3162 74.5279C63.9927 74.5641 56.0242 77.8056 50.1639 83.5394C48.4002 85.265 46.8709 87.1738 45.5957 89.2193C44.6328 90.7638 45.8257 92.6436 47.6459 92.6436H72.4534H97.2623Z" fill="white"/>
<rect x="40.5552" y="113.477" width="63.7963" height="18.1161" rx="2.5" fill="white"/>
<rect x="40.5552" y="152.426" width="63.7963" height="18.1161" rx="2.5" fill="white"/>
<path d="M260.236 77.064V135.624C260.236 139.592 261.132 142.472 262.924 144.264C264.844 145.928 268.044 146.76 272.524 146.76H285.964V165H268.684C258.828 165 251.276 162.696 246.028 158.088C240.78 153.48 238.156 145.992 238.156 135.624V77.064H225.676V59.208H238.156V32.904H260.236V59.208H285.964V77.064H260.236ZM388.505 59.208V165H366.617V152.52C363.161 156.872 358.617 160.328 352.985 162.888C347.481 165.32 341.593 166.536 335.321 166.536C327.001 166.536 319.513 164.808 312.857 161.352C306.329 157.896 301.145 152.776 297.305 145.992C293.593 139.208 291.737 131.016 291.737 121.416V59.208H313.433V118.152C313.433 127.624 315.801 134.92 320.537 140.04C325.273 145.032 331.737 147.528 339.929 147.528C348.121 147.528 354.585 145.032 359.321 140.04C364.185 134.92 366.617 127.624 366.617 118.152V59.208H388.505ZM457.321 57.48C465.641 57.48 473.065 59.208 479.593 62.664C486.249 66.12 491.433 71.24 495.145 78.024C498.857 84.808 500.713 93 500.713 102.6V165H479.017V105.864C479.017 96.392 476.649 89.16 471.913 84.168C467.177 79.048 460.713 76.488 452.521 76.488C444.329 76.488 437.801 79.048 432.937 84.168C428.201 89.16 425.833 96.392 425.833 105.864V165H403.945V59.208H425.833V71.304C429.417 66.952 433.961 63.56 439.465 61.128C445.097 58.696 451.049 57.48 457.321 57.48ZM568.568 57.48C576.888 57.48 584.312 59.208 590.84 62.664C597.496 66.12 602.68 71.24 606.392 78.024C610.104 84.808 611.96 93 611.96 102.6V165H590.264V105.864C590.264 96.392 587.896 89.16 583.16 84.168C578.424 79.048 571.96 76.488 563.768 76.488C555.576 76.488 549.048 79.048 544.184 84.168C539.448 89.16 537.08 96.392 537.08 105.864V165H515.192V59.208H537.08V71.304C540.664 66.952 545.208 63.56 550.712 61.128C556.344 58.696 562.296 57.48 568.568 57.48ZM723.4 109.512C723.4 113.48 723.144 117.064 722.632 120.264H641.8C642.44 128.712 645.576 135.496 651.208 140.616C656.84 145.736 663.752 148.296 671.944 148.296C683.72 148.296 692.04 143.368 696.904 133.512H720.52C717.32 143.24 711.496 151.24 703.048 157.512C694.728 163.656 684.36 166.728 671.944 166.728C661.832 166.728 652.744 164.488 644.68 160.008C636.744 155.4 630.472 149 625.864 140.808C621.384 132.488 619.144 122.888 619.144 112.008C619.144 101.128 621.32 91.592 625.672 83.4C630.152 75.08 636.36 68.68 644.296 64.2C652.36 59.72 661.576 57.48 671.944 57.48C681.928 57.48 690.824 59.656 698.632 64.008C706.44 68.36 712.52 74.504 716.872 82.44C721.224 90.248 723.4 99.272 723.4 109.512ZM700.552 102.6C700.424 94.536 697.544 88.072 691.912 83.208C686.28 78.344 679.304 75.912 670.984 75.912C663.432 75.912 656.968 78.344 651.592 83.208C646.216 87.944 643.016 94.408 641.992 102.6H700.552ZM753.388 22.92V165H731.5V22.92H753.388Z" fill="white"/>
</svg>
